<?xml version="1.0" encoding="utf-8"?>
<!-- Generator: Adobe Illustrator 19.0.0, SVG Export Plug-In . SVG Version: 6.00 Build 0)  -->
<svg version="1.1" id="Layer_1" xmlns="http://www.w3.org/2000/svg" xmlns:xlink="http://www.w3.org/1999/xlink" x="0px" y="0px"
	 viewBox="0 0 64.3 64.3" style="enable-background:new 0 0 64.3 64.3;" xml:space="preserve">
<style type="text/css">
	.st0{fill:#73BF5C;}
</style>
<g>
	<path class="st0" d="M64.3,32.2C64.3,50.1,50,64.3,32,64.3C14.3,64.3,0,49.9,0,32C0,14.3,14.4,0,32.2,0C50,0,64.3,14.4,64.3,32.2z
		 M23.4,12.2c-0.3,0.4-0.5,0.7-0.6,0.9C19.5,20.2,14.4,25.5,7.3,29c-0.4,0.2-0.9,0.8-0.9,1.2c0,2.2,0,4.4,0.3,6.5
		c2.9,16.7,21.1,26,36.4,18.8c11.1-5.2,17-17.6,14.1-29.4c-0.2-0.8-0.4-1.2-1.5-1c-6.9,1.3-13.5,0.6-19.9-2.5
		C30.9,20.2,26.8,16.8,23.4,12.2z"/>
	<path id="XMLID_2_" class="st0" d="M22.6,31.4c2.2,0,3.9,1.8,3.9,4.1c0,2.2-1.9,4-4.1,3.9c-2.2-0.1-3.9-1.9-3.9-4.1
		C18.6,33,20.3,31.4,22.6,31.4z"/>
	<path id="XMLID_1_" class="st0" d="M41.9,31.4c2.2,0,3.9,1.7,3.9,4c0,2.2-1.8,4-4,4c-2.2,0-3.9-1.8-3.9-4
		C37.9,33.1,39.6,31.4,41.9,31.4z"/>
</g>
</svg>
